<?xml version="1.0" encoding="utf-8"?>
<!-- Generator: Adobe Illustrator 16.0.0, SVG Export Plug-In . SVG Version: 6.00 Build 0)  -->
<!DOCTYPE svg PUBLIC "-//W3C//DTD SVG 1.1//EN" "http://www.w3.org/Graphics/SVG/1.1/DTD/svg11.dtd">
<svg version="1.1" id="Layer_1" xmlns="http://www.w3.org/2000/svg" xmlns:xlink="http://www.w3.org/1999/xlink" x="0px" y="0px"
	 fill="aliceblue" width="512px" height="512px" viewBox="0 0 512 512" enable-background="new 0 0 512 512" xml:space="preserve">
<g>
	<path d="M73.937,414.184c-12.552,12.551-12.552,32.905,0,45.457c12.544,12.545,32.897,12.545,45.441,0L241.91,337.112
		L199.019,289.1L73.937,414.184z"/>
	<path d="M499.383,118.316c-6.538-6.538-17.134-6.538-23.672,0l-79.764,79.756c-1.802,1.802-4.734,1.802-6.538,0l-11.248-11.249
		c-0.869-0.869-1.352-2.045-1.352-3.269c0-1.223,0.483-2.399,1.352-3.268l79.169-79.161c3.293-3.293,5.145-7.77,5.145-12.431
		c0-4.661-1.852-9.138-5.145-12.431c-3.317-3.317-7.786-5.169-12.439-5.169c-4.653,0-9.122,1.852-12.415,5.145L353.3,155.423
		c-0.869,0.871-2.045,1.354-3.269,1.354c-1.225,0-2.399-0.483-3.27-1.354l-11.247-11.247c-1.804-1.804-1.804-4.734,0-6.538
		l79.756-79.764c6.538-6.538,6.538-17.132,0-23.67c-3.156-3.165-7.407-4.927-11.844-4.927c-4.436,0-8.687,1.762-11.818,4.902
		l-86.455,86.456c-21.612,21.605-27.316,52.915-17.544,79.871l-13.933,13.934l45.454,45.457l13.935-13.935
		c26.96,9.776,58.271,4.073,79.88-17.536l86.439-86.439C505.921,135.448,505.921,124.852,499.383,118.316z"/>
	<path d="M78.364,54.098c-7.52-7.519-17.712-11.739-28.34-11.739c-10.627,0-20.821,4.22-28.34,11.739
		c-14.259,14.26-15.7,36.883-3.382,52.841l106.197,137.459c8.421,10.911,21.135,17.665,34.887,18.542
		c1.022,0.066,2.036,0.097,3.059,0.097c12.673,0,24.887-5.024,33.905-14.049l174.253,195.057
		c6.337,7.085,15.305,11.257,24.806,11.523c0.323,0.008,0.645,0.016,0.966,0.016c9.155,0,17.955-3.632,24.452-10.129
		c13.503-13.503,13.503-35.386,0-48.887L78.364,54.098z"/>
</g>
</svg>
